<?xml version="1.0" encoding="UTF-8"?>
<svg width="18px" height="23px" viewBox="0 0 18 23" version="1.1" xmlns="http://www.w3.org/2000/svg" xmlns:xlink="http://www.w3.org/1999/xlink">
    <!-- Generator: sketchtool 55.2 (78181) - https://sketchapp.com -->
    <title>1B621A58-1D63-4776-8A66-6461ACD47C46</title>
    <desc>Created with sketchtool.</desc>
    <g id="Styyle-and-components" stroke="none" stroke-width="1" fill="none" fill-rule="evenodd">
        <g id="Assets---Icons" transform="translate(-1015.000000, -637.000000)" fill="#663399" fill-rule="nonzero">
            <path d="M1029.62055,644 L1026,640.304021 L1026,644 L1029.62055,644 Z M1031,646 L1025,646 C1024.44772,646 1024,645.552285 1024,645 L1024,639 L1017,639 L1017,658 L1031,658 L1031,646 Z M1025.14286,637 C1025.41165,637 1025.66912,637.108207 1025.85722,637.30022 L1032.71436,644.30022 C1032.89745,644.487129 1033,644.738354 1033,645 L1033,659 C1033,659.552285 1032.55228,660 1032,660 L1016,660 C1015.44772,660 1015,659.552285 1015,659 L1015,638 C1015,637.447715 1015.44772,637 1016,637 L1025.14286,637 Z" id="document"></path>
        </g>
    </g>
</svg>