<?xml version="1.0" encoding="UTF-8"?>
<svg width="21px" height="22px" viewBox="0 0 21 22" version="1.1" xmlns="http://www.w3.org/2000/svg" xmlns:xlink="http://www.w3.org/1999/xlink">
    <!-- Generator: sketchtool 55.2 (78181) - https://sketchapp.com -->
    <title>685994F7-AFA8-4946-B07F-84842FB32055</title>
    <desc>Created with sketchtool.</desc>
    <g id="Styyle-and-components" stroke="none" stroke-width="1" fill="none" fill-rule="evenodd">
        <g id="Assets---Icons" transform="translate(-839.000000, -635.000000)" fill="#663399" fill-rule="nonzero">
            <path d="M854.724448,654.843137 C855.301011,654.843137 855.772744,654.357843 855.772744,653.764706 L855.772744,648.372549 C855.772744,647.779412 856.244478,647.294118 856.821041,647.294118 C857.397604,647.294118 857.869337,647.779412 857.869337,648.372549 L857.869337,654.843137 C857.869337,656.029412 856.92587,657 855.772744,657 L841.096593,657 C839.943467,657 839,656.029412 839,654.843137 L839,639.745098 C839,638.558824 839.932984,637.588235 841.096593,637.588235 L847.386372,637.588235 C847.962935,637.588235 848.434669,638.073529 848.434669,638.666667 C848.434669,639.259804 847.962935,639.745098 847.386372,639.745098 L842.14489,639.745098 C841.568326,639.745098 841.096593,640.230392 841.096593,640.823529 L841.096593,653.764706 C841.096593,654.357843 841.568326,654.843137 842.14489,654.843137 L854.724448,654.843137 Z M852.661924,636.078431 C852.661924,635.485294 853.133658,635 853.710221,635 L860,635 L860,641.470588 C860,642.063725 859.528267,642.54902 858.951703,642.54902 C858.37514,642.54902 857.903407,642.063725 857.903407,641.470588 L857.903407,638.677451 L848.33246,648.523529 C847.923624,648.944118 847.263197,648.944118 846.854362,648.523529 C846.445526,648.102941 846.445526,647.423529 846.854362,647.002941 L856.425309,637.156863 L853.710221,637.156863 C853.133658,637.156863 852.661924,636.671569 852.661924,636.078431 Z" id="open_external"></path>
        </g>
    </g>
</svg>