<svg xmlns="http://www.w3.org/2000/svg" width="21" height="100%">
    <defs/>
    <path fill="#639" d="M15.724 19.843c.577 0 1.049-.485 1.049-1.078v-5.392c0-.594.471-1.079 1.048-1.079.577 0 1.048.485 1.048 1.079v6.47c0 1.186-.943 2.157-2.096 2.157H2.097C.943 22 0 21.03 0 19.843V4.745C0 3.56.933 2.588 2.097 2.588h6.29c.576 0 1.048.486 1.048 1.079s-.472 1.078-1.049 1.078H3.145c-.577 0-1.048.485-1.048 1.079v12.94c0 .594.471 1.08 1.048 1.08h12.58zM13.662 1.078C13.662.485 14.134 0 14.71 0H21v6.47c0 .594-.472 1.079-1.048 1.079-.577 0-1.049-.485-1.049-1.078V3.677l-9.57 9.847c-.41.42-1.07.42-1.479 0a1.096 1.096 0 0 1 0-1.521l9.571-9.846H14.71c-.576 0-1.048-.485-1.048-1.079z"/>
</svg>
