<svg xmlns="http://www.w3.org/2000/svg" width="22" height="100%">
    <defs/>
    <path fill="#639" d="M18.51.005a3.462 3.462 0 0 1 2.357.858l-.858.617-9.05 6.468-2.356-1.7a.466.466 0 0 0-.17-.115L1.96 1.475 1.108.863A3.234 3.234 0 0 1 3.463.005h15.048zm-17.2 2.24L7.534 6.74l-6.167 7.117-.67.769A4.47 4.47 0 0 1 0 12.15l.005-8.316A4.65 4.65 0 0 1 .514 1.67l.796.575zm18.643 12.318l.664.764a3.526 3.526 0 0 1-2.078.67H3.463a3.339 3.339 0 0 1-2.092-.633l.679-.78 6.322-7.253 2.384 1.716.113.042h.038c.04.006.079.006.118 0a.389.389 0 0 0 .118 0h.037l.08-.042 2.403-1.726 6.29 7.242zm2.044-2.412a4.229 4.229 0 0 1-.678 2.47l-.674-.78-6.162-7.122 6.219-4.475.8-.57c.345.66.516 1.414.495 2.177v8.3z"/>
</svg>
