<?xml version="1.0" encoding="UTF-8"?>
<svg width="22px" height="16px" viewBox="0 0 22 16" version="1.1" xmlns="http://www.w3.org/2000/svg" xmlns:xlink="http://www.w3.org/1999/xlink">
    <!-- Generator: sketchtool 55.2 (78181) - https://sketchapp.com -->
    <title>F6D9568B-98B7-46DF-9A20-ED64B14BC738</title>
    <desc>Created with sketchtool.</desc>
    <g id="Styyle-and-components" stroke="none" stroke-width="1" fill="none" fill-rule="evenodd">
        <g id="Assets---Icons" transform="translate(-1101.000000, -407.000000)" fill="#663399" fill-rule="nonzero">
            <path d="M1119.51091,407.004745 C1120.3617,406.980869 1121.19377,407.284058 1121.86653,407.862962 L1121.00909,408.48046 L1111.95878,414.948487 L1109.60316,413.247752 C1109.55463,413.196402 1109.4968,413.157155 1109.43355,413.132625 L1102.9603,408.475227 L1102.10756,407.862962 C1102.77032,407.263322 1103.60945,406.957582 1104.46319,407.004745 L1119.51091,407.004745 Z M1102.31015,409.244482 L1108.5337,413.739656 L1102.36668,420.856579 L1101.69768,421.625835 C1101.23286,420.904854 1100.98846,420.037283 1101.00042,419.150611 L1101.00513,410.835324 C1100.99848,410.075749 1101.17409,409.327949 1101.51394,408.668849 L1102.31015,409.244482 Z M1120.95255,421.563039 L1121.61684,422.327061 C1120.99743,422.769383 1120.27554,423.002122 1119.53918,422.996889 L1104.46319,422.996889 C1103.72393,423.029269 1102.99363,422.808238 1102.37139,422.363692 L1103.04981,421.583971 L1109.3723,414.330989 L1111.7562,416.047423 L1111.86927,416.089288 L1111.90696,416.089288 C1111.94606,416.094782 1111.98563,416.094782 1112.02474,416.089288 C1112.06384,416.094782 1112.10341,416.094782 1112.14252,416.089288 L1112.18021,416.089288 L1112.2603,416.047423 L1114.66304,414.320523 L1120.95255,421.563039 Z M1122.99723,419.150611 C1123.0288,420.035451 1122.78964,420.906031 1122.31881,421.620602 L1121.6451,420.84088 L1115.48279,413.718724 L1121.70164,409.244482 L1122.50255,408.674082 C1122.84694,409.334294 1123.01826,410.088309 1122.99723,410.851023 L1122.99723,419.150611 Z" id="mail"></path>
        </g>
    </g>
</svg>